<svg xmlns="http://www.w3.org/2000/svg" width="109.902" height="22.423" viewBox="0 0 109.902 22.423">
  <defs>
    <style>
      .cls-1 {
        fill: #ed743d;
      }
    </style>
  </defs>
  <g id="logoThin" transform="translate(-59.256 -296.96)">
    <path id="Trazado_2" data-name="Trazado 2" class="cls-1" d="M63.232,319.011H59.256V297.2H74.884v3.427H63.232Zm-.306-11.747H73.569v3.365H62.926Z" transform="translate(0 0.066)"/>
    <path id="Trazado_3" data-name="Trazado 3" class="cls-1" d="M74.544,319.011V297.2h8.808a11.783,11.783,0,0,1,4.878.919,7.013,7.013,0,0,1,3.135,2.664,7.663,7.663,0,0,1,1.1,4.175,7.446,7.446,0,0,1-1.1,4.113,7.18,7.18,0,0,1-3.135,2.649,11.612,11.612,0,0,1-4.878.935H76.777l1.743-1.807v8.164Zm3.976-7.727-1.743-1.963h6.392a5.9,5.9,0,0,0,3.961-1.153,4.021,4.021,0,0,0,1.33-3.209,3.974,3.974,0,0,0-1.33-3.194,5.958,5.958,0,0,0-3.961-1.137H76.777l1.743-1.994Zm10.031,7.727L83.138,311.1h4.251l5.444,7.914Z" transform="translate(4.623 0.066)"/>
    <path id="Trazado_4" data-name="Trazado 4" class="cls-1" d="M89.711,319.011,99.345,297.2h3.916l9.664,21.811h-4.19l-8.258-19.661h1.59l-8.289,19.661Z" transform="translate(9.259 0.066)"/>
    <path id="Trazado_5" data-name="Trazado 5" class="cls-1" d="M110.063,319.011V297.2h3.274l13.425,16.826h-1.62V297.2h3.915v21.811h-3.274l-13.394-16.826h1.621v16.826Z" transform="translate(15.374 0.066)"/>
    <path id="Trazado_6" data-name="Trazado 6" class="cls-1" d="M139.741,319.383a12.248,12.248,0,0,1-4.557-.825,10.724,10.724,0,0,1-3.624-2.351,10.921,10.921,0,0,1-2.4-3.55,12.171,12.171,0,0,1,0-8.969,10.865,10.865,0,0,1,6.056-5.9,13,13,0,0,1,9.359.093,9.52,9.52,0,0,1,3.67,2.725l-2.569,2.46a8.1,8.1,0,0,0-2.63-1.915,7.523,7.523,0,0,0-3.089-.638,8.155,8.155,0,0,0-3.074.561,7.135,7.135,0,0,0-2.416,1.588,7.431,7.431,0,0,0-1.606,2.429,8.47,8.47,0,0,0,0,6.166,7.43,7.43,0,0,0,1.606,2.429,7.135,7.135,0,0,0,2.416,1.588,8.155,8.155,0,0,0,3.074.561,7.523,7.523,0,0,0,3.089-.638,7.908,7.908,0,0,0,2.63-1.946l2.569,2.46a9.662,9.662,0,0,1-3.67,2.741A12.105,12.105,0,0,1,139.741,319.383Z" transform="translate(20.915 0)"/>
  </g>
</svg>
