<svg xmlns="http://www.w3.org/2000/svg" width="130.427" height="26.208" viewBox="0 0 130.427 26.208">
  <defs>
    <style>
      .cls-1 {
        fill: #ed743d;
      }
    </style>
  </defs>
  <g id="LogoBold" transform="translate(-88.413 -251.439)">
    <path id="Trazado_7" data-name="Trazado 7" class="cls-1" d="M95.541,277.143H88.413v-25.2h19.728v5.544h-12.6ZM95,262.995h11.628V268.5H95Z"/>
    <path id="Trazado_8" data-name="Trazado 8" class="cls-1" d="M111.525,277.143v-25.2h11.484a14.673,14.673,0,0,1,5.976,1.116,8.583,8.583,0,0,1,3.87,3.222,8.972,8.972,0,0,1,1.35,4.95,8.838,8.838,0,0,1-1.35,4.968,8.6,8.6,0,0,1-3.87,3.15,14.866,14.866,0,0,1-5.976,1.1h-7.56l3.2-3.024v9.72Zm7.128-8.892-3.2-3.312h7.128a4.98,4.98,0,0,0,3.348-.972,3.846,3.846,0,0,0,0-5.418,4.917,4.917,0,0,0-3.348-.99h-7.128l3.2-3.276Zm8.424,8.892-6.264-9.18h7.6l6.3,9.18Z"/>
    <path id="Trazado_9" data-name="Trazado 9" class="cls-1" d="M135.1,277.143l11.125-25.2h7.02l11.159,25.2h-7.416l-8.712-21.708h2.808l-8.712,21.708Z"/>
    <path id="Trazado_10" data-name="Trazado 10" class="cls-1" d="M166.46,277.143v-25.2h5.868l13.86,16.776h-2.771V251.943H190.4v25.2h-5.868l-13.9-16.776h2.772v16.776Z"/>
    <path id="Trazado_11" data-name="Trazado 11" class="cls-1" d="M208,277.647a15.427,15.427,0,0,1-5.507-.954,13.208,13.208,0,0,1-4.393-2.7,12.3,12.3,0,0,1-2.916-4.158,13.947,13.947,0,0,1,0-10.584,12.3,12.3,0,0,1,2.916-4.158,13.224,13.224,0,0,1,4.393-2.7,16.585,16.585,0,0,1,11.753.252,11.714,11.714,0,0,1,4.59,3.546l-4.536,4.1a8.858,8.858,0,0,0-2.7-2.2,7,7,0,0,0-3.24-.756,7.774,7.774,0,0,0-2.843.5,6.088,6.088,0,0,0-2.214,1.458,6.864,6.864,0,0,0-1.441,2.286,8.608,8.608,0,0,0,0,5.9,6.843,6.843,0,0,0,1.441,2.286,6.075,6.075,0,0,0,2.214,1.458,7.753,7.753,0,0,0,2.843.5,7,7,0,0,0,3.24-.756,8.653,8.653,0,0,0,2.7-2.232l4.536,4.1a11.87,11.87,0,0,1-4.59,3.564A15.224,15.224,0,0,1,208,277.647Z"/>
  </g>
</svg>
