<svg width="168" height="168" viewBox="0 0 168 168" fill="none" xmlns="http://www.w3.org/2000/svg">
<g id="Stamp">
<circle id="Stamp_bg" cx="84" cy="84" r="84" fill="black"/>
<g id="Letter__Stamp">
<path d="M23.3069 72.7566L23.5336 68.686C27.3877 70.0428 29.6548 73.435 29.2013 77.9579C28.7479 83.3854 24.6672 86.5514 18.9994 86.0991C13.3317 85.6468 9.47765 81.8024 10.1578 76.1487C10.6112 71.6258 13.3317 68.686 17.4125 68.2337L16.959 72.3043C14.9187 72.7566 13.5584 74.5657 13.3317 76.601C13.3317 79.7671 15.5988 82.0285 19.2261 82.2547C23.0802 82.707 25.574 80.8978 26.0274 77.7318C26.2541 75.4703 25.3473 73.6611 23.3069 72.7566Z" fill="white"/>
<path d="M21.4932 65.0676C16.2789 62.8061 14.2385 57.6048 16.5056 52.8557C18.7727 47.8805 23.7603 46.0714 28.9746 48.3328C34.1889 50.5943 36.2293 55.5695 33.9622 60.5447C31.6951 65.746 26.7075 67.329 21.4932 65.0676ZM27.3876 51.9511C23.987 50.3681 21.0398 51.0466 19.6795 53.9865C18.3193 56.9263 19.6795 59.6401 23.0802 61.2231C26.4808 62.8061 29.428 61.9015 30.7883 58.9616C32.1485 56.2479 30.7883 53.5342 27.3876 51.9511Z" fill="white"/>
<path d="M24.8938 38.6086L27.3876 35.8948L42.1237 38.8347L32.8286 30.0151L35.3224 27.3013L48.925 40.1916L46.4312 42.9053L31.9218 40.1916L40.9902 48.7851L38.4964 51.4989L24.8938 38.6086Z" fill="white"/>
<path d="M58.2201 34.9903L55.0461 36.7994L47.338 23.4569L42.3504 26.3968L40.7635 23.4569L54.1393 15.9941L55.4995 18.4817L50.5119 21.4216L58.2201 34.9903Z" fill="white"/>
<path d="M71.5956 25.9444L64.7944 27.7536L64.3409 31.8242L60.7136 32.7288L62.754 12.828L66.1546 12.1496L77.9435 28.432L74.0894 29.5627L71.5956 25.9444ZM69.782 23.4568L65.7012 17.5771L65.0211 24.8137L69.782 23.4568Z" fill="white"/>
<path d="M90.8661 22.7785L94.9469 23.0046C93.8134 26.8491 90.4127 29.3367 85.8785 29.1105C80.4375 28.8844 77.0369 25.0399 77.2636 19.3863C77.4903 13.7327 81.1177 9.66204 87.0121 10.1143C91.5463 10.3405 94.4935 12.8281 95.4003 17.1248L91.0928 16.6725C90.4127 14.6372 88.8258 13.5065 86.5587 13.2804C83.3847 13.0542 81.1177 15.5418 80.8909 19.1601C80.6642 22.7785 82.7046 25.4922 85.8785 25.4922C88.3723 25.7183 90.186 24.8138 90.8661 22.7785Z" fill="white"/>
<path d="M103.335 32.5027L99.9346 31.372L104.922 16.6726L99.4812 14.6372L100.615 11.4712L115.124 16.6726L113.991 19.8386L108.55 17.8033L103.335 32.5027Z" fill="white"/>
<path d="M137.795 34.0856L140.969 37.2517L128.046 50.8204L125.326 48.3328L130.087 43.3576C131.447 42.0007 133.034 40.4177 134.394 39.287L122.152 45.1667L119.658 42.9053L125.326 30.015C124.192 31.598 122.379 33.4072 121.018 34.7641L116.257 39.7393L113.764 37.0255L126.686 23.4568L130.087 26.6228L123.966 40.87L137.795 34.0856Z" fill="white"/>
<path d="M137.795 62.8062L134.847 64.3892L128.953 52.8558L145.729 44.2623L151.624 55.5695L148.45 57.1525L144.369 49.0113L140.515 51.0466L143.689 57.1525L140.742 58.5094L137.568 52.4035L133.487 54.4388L137.795 62.8062Z" fill="white"/>
<path d="M144.143 69.1382C145.503 68.912 146.863 69.8166 147.09 71.1735C147.316 72.5304 146.41 73.6611 145.049 73.8872C143.689 74.1134 142.556 73.2088 142.329 72.0781C141.875 70.495 142.782 69.3643 144.143 69.1382Z" fill="white"/>
<path d="M142.782 95.8233L142.329 99.8939C138.475 98.537 136.435 94.9187 136.888 90.3958C137.568 84.9683 141.876 82.0284 147.543 82.7068C153.211 83.3853 156.838 87.4559 156.158 93.1095C155.478 97.6324 152.758 100.346 148.45 100.798L148.904 96.7278C151.171 96.2756 152.304 94.6925 152.531 92.6572C152.984 89.4912 150.717 87.0036 147.09 86.5513C143.463 86.099 140.742 87.682 140.289 90.8481C140.062 93.1095 140.969 94.9187 142.782 95.8233Z" fill="white"/>
<path d="M144.369 103.738C149.357 106.226 151.397 111.427 148.903 116.176C146.41 120.925 141.195 122.508 136.208 120.021C131.22 117.533 129.406 112.332 131.673 107.583C134.167 102.608 139.382 101.251 144.369 103.738ZM137.795 116.403C141.195 117.986 144.142 117.533 145.503 114.593C147.09 111.653 145.729 108.94 142.329 107.131C138.928 105.321 135.981 106 134.621 108.94C133.26 112.106 134.621 114.82 137.795 116.403Z" fill="white"/>
<path d="M139.835 130.197L137.115 132.685L122.605 129.067L131.447 138.113L128.726 140.6L115.577 127.031L118.298 124.544L132.581 127.936L123.966 119.116L126.686 116.629L139.835 130.197Z" fill="white"/>
<path d="M106.282 132.233L109.683 130.65L116.711 144.444L121.925 141.731L123.512 144.671L109.91 151.681L108.323 148.741L113.537 146.028L106.282 132.233Z" fill="white"/>
<path d="M92.6798 140.6L99.4811 139.017L100.161 134.946L103.789 134.042L100.841 153.942L97.4407 154.621L86.5587 137.886L90.6394 136.982L92.6798 140.6ZM94.2668 143.087L98.1208 149.193L99.0277 141.957L94.2668 143.087Z" fill="white"/>
<path d="M73.1828 143.087L69.102 142.635C70.4623 138.791 73.8629 136.529 78.3971 136.981C83.8381 137.434 87.012 141.504 86.5586 147.158C86.1052 152.812 82.2511 156.656 76.5834 156.204C72.0492 155.752 69.102 153.038 68.4219 148.967L72.5026 149.419C73.1828 151.455 74.7697 152.812 76.8101 153.038C79.984 153.264 82.2511 151.002 82.7045 147.384C82.9312 143.766 81.3443 141.052 77.9436 140.826C75.9033 140.148 74.0896 141.052 73.1828 143.087Z" fill="white"/>
<path d="M61.1673 132.685L64.5679 134.042L58.6735 148.289L64.1145 150.55L62.9809 153.49L48.6983 147.837L49.8318 144.897L55.2728 147.158L61.1673 132.685Z" fill="white"/>
<path d="M26.7075 129.745L23.5336 126.579L37.1361 113.689L39.6299 116.176L34.6423 120.925C33.282 122.282 31.4684 123.865 30.1081 124.77L42.8038 119.342L45.2976 121.83L38.9498 134.494C40.31 132.911 41.897 131.328 43.4839 129.971L48.4715 125.222L50.9653 127.936L37.3628 140.826L34.1889 137.434L40.9901 123.413L26.7075 129.745Z" fill="white"/>
<path d="M28.0679 100.798L31.0151 99.4414L36.4561 111.201L19.4529 119.116L14.0119 107.583L16.9591 106.226L20.8132 114.367L24.894 112.558L21.9467 106.226L24.894 104.869L27.8412 111.201L31.9219 109.392L28.0679 100.798Z" fill="white"/>
<path d="M23.0799 99.6678C21.7197 99.894 20.3594 99.2155 20.1327 97.8586C19.906 96.5018 20.5861 95.371 21.9464 94.9188C23.0799 94.6926 24.4402 95.3711 24.8936 96.7279C25.347 98.0848 24.4402 99.4417 23.0799 99.6678Z" fill="white"/>
</g>
<g id="Arrow_box">
<circle id="Arrow_bg" cx="83.1598" cy="83.16" r="46.2" fill="white"/>
<path id="Arrow_Vector" d="M50.4732 50.4768C32.4554 68.4992 32.4554 97.8278 50.4732 115.85C68.4956 133.868 97.8195 133.868 115.847 115.85C133.864 97.8278 133.864 68.4992 115.847 50.4768C97.8195 32.4544 68.4956 32.4544 50.4732 50.4768V50.4768ZM99.4974 99.5057H66.8177L79.8896 86.4291L63.5497 70.0846L70.0856 63.5487L86.4255 79.8932L99.4974 66.8167V99.5057V99.5057Z" fill="#FE6C2D"/>
</g>
</g>
</svg>
